<?xml version="1.0" encoding="iso-8859-1"?>
<!-- Generator: Adobe Illustrator 19.0.0, SVG Export Plug-In . SVG Version: 6.00 Build 0)  -->
<svg version="1.1" id="Capa_1" xmlns="http://www.w3.org/2000/svg" xmlns:xlink="http://www.w3.org/1999/xlink" x="0px" y="0px"
	 viewBox="0 0 512 512" style="enable-background:new 0 0 512 512;" xml:space="preserve">
<g>
	<g>
		<path d="M282.779,158.533h-28.117h-38.557V241h66.674c22.735,0,41.232-18.498,41.232-41.234S305.514,158.533,282.779,158.533z"/>
	</g>
</g>
<g>
	<g>
		<path d="M437.019,74.98C388.668,26.629,324.381,0,256,0C187.62,0,123.333,26.629,74.981,74.98C26.629,123.333,0,187.62,0,256
			c0,68.381,26.628,132.668,74.981,181.02C123.333,485.371,187.62,512,256,512c68.381,0,132.668-26.629,181.02-74.98
			C485.372,388.668,512,324.381,512,256C512,187.62,485.372,123.333,437.019,74.98z M354.011,312.232
			c0,34.605-24.809,63.515-57.572,69.906V400.6c0,8.285-6.717,15-15,15c-8.285,0-15-6.715-15-15v-17.133h-11.777h-38.557V400.6
			c0,8.285-6.715,15-15,15c-8.283,0-15-6.715-15-15v-17.133h-13.117c-8.283,0-15-6.716-15-15s6.717-15,15-15h13.117V256v-97.467
			h-13.117c-8.283,0-15-6.716-15-15s6.717-15,15-15h13.117V111.4c0-8.284,6.717-15,15-15c8.285,0,15,6.716,15,15v17.133h38.557
			h11.777V111.4c0-8.284,6.715-15,15-15c8.283,0,15,6.716,15,15v18.461c32.764,6.391,57.572,35.299,57.572,69.904
			c0,22.84-10.817,43.189-27.584,56.234C343.194,269.044,354.011,289.393,354.011,312.232z"/>
	</g>
</g>
<g>
	<g>
		<path d="M282.779,271h-66.674v82.467h38.557h28.117c22.735,0,41.232-18.498,41.232-41.234
			C324.011,289.497,305.514,271,282.779,271z"/>
	</g>
</g>
<g>
</g>
<g>
</g>
<g>
</g>
<g>
</g>
<g>
</g>
<g>
</g>
<g>
</g>
<g>
</g>
<g>
</g>
<g>
</g>
<g>
</g>
<g>
</g>
<g>
</g>
<g>
</g>
<g>
</g>
</svg>
