<svg id="Layer_1" enable-background="new 0 0 512 512" height="512" viewBox="0 0 512 512" width="512" xmlns="http://www.w3.org/2000/svg"><g><path d="m271.363 176h-50.363c-2.761 0-5 2.239-5 5v54c0 2.761 2.239 5 5 5h51c17.46 0 31.699-14.056 31.995-31.446.306-17.902-14.728-32.554-32.632-32.554z"/><path d="m271.363 272h-50.363c-2.761 0-5 2.239-5 5v54c0 2.761 2.239 5 5 5h51c17.46 0 31.699-14.056 31.995-31.446.306-17.902-14.728-32.554-32.632-32.554z"/><path d="m437.02 74.98c-48.352-48.352-112.64-74.98-181.02-74.98s-132.668 26.628-181.02 74.98-74.98 112.64-74.98 181.02 26.629 132.667 74.98 181.02 112.64 74.98 181.02 74.98 132.668-26.628 181.02-74.98 74.98-112.64 74.98-181.02-26.629-132.667-74.98-181.02zm-101.02 229.02c0 25.686-15.217 47.873-37.104 58.053-1.764.82-2.896 2.581-2.896 4.526v16.969c0 8.616-6.621 16.029-15.227 16.434-9.189.432-16.773-6.889-16.773-15.982v-11c0-2.761-2.239-5-5-5h-22c-2.761 0-5 2.239-5 5v10.548c0 8.616-6.621 16.029-15.227 16.434-9.189.432-16.773-6.889-16.773-15.982v-11c0-2.761-2.239-5-5-5h-26.548c-8.615 0-16.028-6.621-16.434-15.226-.433-9.188 6.888-16.774 15.982-16.774h11c2.761 0 5-2.239 5-5v-75-75c0-2.761-2.239-5-5-5h-10.548c-8.615 0-16.028-6.621-16.434-15.226-.433-9.188 6.888-16.774 15.982-16.774h27c2.761 0 5-2.239 5-5v-10.548c0-8.616 6.621-16.029 15.227-16.434 9.189-.432 16.773 6.889 16.773 15.982v11c0 2.761 2.239 5 5 5h22c2.761 0 5-2.239 5-5v-10.548c0-8.616 6.621-16.029 15.227-16.434 9.189-.432 16.773 6.889 16.773 15.982v17.421c0 1.945 1.132 3.706 2.896 4.526 21.887 10.18 37.104 32.367 37.104 58.053 0 17.284-6.896 32.981-18.072 44.506-1.894 1.953-1.894 5.034 0 6.987 11.176 11.526 18.072 27.223 18.072 44.507z"/></g></svg>