<svg id="Layer_1" data-name="Layer 1" xmlns="http://www.w3.org/2000/svg" viewBox="0 0 512 512"><title>euro-handdrawn</title><path d="M364.95,109.78c-4.82,8.36,129.18,62,123.72,71.53C484.78,188,374.13,109,369.49,117.08s131.8,64,126.54,73.16c-4,7-136.64-85.13-141.39-76.89-5,8.62,145,74.25,140.83,81.42-2.61,4.53-133.09-80.56-136.49-74.66-5.25,9.1,131.35,68.55,128.16,74.09-2.31,4-118.57-73-122.62-66-4.4,7.63,136.91,65.85,131.16,75.83-3.86,6.69-137.45-88.81-142.12-80.71-5.61,9.72,143.42,73.28,139.25,80.51-3.46,6-130.08-77.93-133.25-72.43-5.12,8.88,139.92,69.54,135,78.06S360.08,129.25,357,134.58c-6,10.35,149.86,76.65,145.54,84.15-2.61,4.52-147.18-90.32-150.63-84.33-3.18,5.52,151.95,79.37,148.28,85.73-4.66,8.08-137.71-87.74-142.31-79.75-3.39,5.89,148.57,79.42,145.77,84.28-5.95,10.32-142.43-93.59-148-84-2.85,4.94,147.38,74.31,142.67,82.48-5.33,9.25-145.26-90.43-149.17-83.65-4.87,8.45,158.37,82.89,154.62,89.39C498.54,238,356.26,130.75,350.34,141c-4.94,8.56,148,73.78,142.88,82.61-3.86,6.69-136.22-86.51-140.88-78.43-5.82,10.09,152.28,75,146.66,84.79-5.78,10-145.64-92.2-149.76-85.06-4,6.87,152.56,75.51,147.07,85-5,8.65-149.68-91.53-153.93-84.16-5.81,10.08,164.74,88.43,161.8,93.54-6.35,11-157.74-99.06-161.64-92.29-3.29,5.7,155.71,78.28,150.63,87.09-5.25,9.1-146.54-95.71-152.65-85.11-3.39,5.88,157.86,76.37,151.42,87.54-4.73,8.2-142.28-88.65-146.15-81.94-3.24,5.62,161.38,78,154.76,89.47-3.88,6.73-158.63-93.53-161.73-88.15s158.86,80.38,153.9,89c-3.11,5.39-142.36-93.8-148.17-83.73-5.32,9.23,163.69,83.13,158.71,91.76-2.93,5.09-160.68-105.3-166.61-95-5.24,9.09,166.26,82.1,160.19,92.62S339.91,152.15,336,159c-3.63,6.3,163.72,82.57,158.49,91.63-4,6.92-154.17-101.26-160-91.11-4.49,7.79,168.94,81.77,162.07,93.7-6.14,10.65-153.3-97-159.43-86.39s171.47,84.2,165,95.4c-4,6.91-199.37-128.72-207.64-114.39-6.16,10.69,214.72,113.91,210.29,121.58C498.06,281,297.29,134.61,290.6,146.22,285,155.93,507,260.33,502.27,268.6s-201-126.24-206.06-117.54C287.66,165.88,502.81,259.37,498,267.72c-6.37,11-212.83-127.93-217.33-120.14-7,12.09,221.22,109.51,213.27,123.3-7.44,12.91-219.29-136.31-224.24-127.73C262,156.56,507.08,269.69,502.45,277.72c-5.82,10.1-216.92-140-223.78-128.14C273.56,158.46,504.26,267.81,499,277,492.28,288.59,282.4,135.89,275.1,148.55c-7.41,12.85,233,115.91,224.84,130-6.19,10.73-214.5-142.3-223.17-127.26C268.53,165.57,508,271.75,502.27,281.66c-6.77,11.74-222.84-149-232.1-132.92-8.09,14,233.27,125.16,229.07,132.44s-230.73-149-239.16-134.33C250.53,163.41,509,275.91,502.57,287c-5.41,9.38-236.09-158.12-245.81-141.26-7.1,12.31,239.51,124.48,233.46,135-5.66,9.81-219.95-138.3-225.74-128.25-6.72,11.66,238.2,119.54,230.34,133.17-8.66,15-235.74-145.12-242.08-134.13-8.88,15.39,244.75,130.38,239.94,138.72-8.05,14-241.68-147.71-246-140.22-9.46,16.4,262,129.57,252.52,146-7.5,13-244.31-153.66-251-142.09-5.33,9.25,260.85,134.28,253.7,146.68-8,14-252.49-157.76-260.18-144.43-6.2,10.75,263,128.66,252.87,146.2C485.75,317.76,246.06,138.14,236,155.5,230.82,164.58,497,283.64,487.16,300.69c-6.63,11.49-235.89-156.11-244.93-140.43C232.58,177,494.9,290,487.85,302.27c-4.6,8-233.44-156-243.09-139.26-7.43,12.89,253.5,133.59,247.89,143.32-5,8.62-243.88-153.18-250.93-140.95-1.77,3.07,72.87,37,70.66,40.85-1.79,3.1-81.71-48.56-84.7-43.37-2.71,4.7,64.68,34.35,63.36,36.63-2.06,3.58-54.37-32.86-55.71-30.54s62.81,30.74,60.4,34.92c-1.55,2.69-62.37-34.44-64.22-31.22-2.56,4.45,52.47,27.26,51.14,29.57-1.54,2.68-50-32.34-51.76-29.34-1.57,2.72,59.11,28.84,56.8,32.84-1.64,2.84-55.48-36.3-57.33-33.09-2.5,4.33,59.64,31.08,58.16,33.63s-52.78-33-54-30.9c-1.89,3.28,43.75,21,41.87,24.21-1,1.68-44.6-23.79-45.36-22.47-2.17,3.76,41.44,18.84,39.23,22.68-1.11,1.93-37.73-21.34-38.68-19.7-2.08,3.62,40.73,19.24,38.87,22.47-1.5,2.6-46-27.47-47.41-25-1.81,3.14,39.77,20.08,38.51,22.26-1.09,1.89-35.19-16.36-35.91-15.11-.88,1.52,28.48,14.41,27.59,16-1.21,2.09-33.44-17-34.23-15.63-1.54,2.66,26.25,12.62,25.14,14.54-.67,1.16-28.19-14.75-29.11-13.14-.76,1.31,30,15.58,29.2,16.88s-26.09-15-27-13.36c-.81,1.41,28.59,14,27.52,15.91-.78,1.36-30.86-14.85-31.56-13.63-1,1.78,18.28,9.46,17.8,10.29-.62,1.08-21.08-9.69-21.5-9-.66,1.15,11.61,5.33,11,6.37-.38.65-10.26-4.62-10.45-4.29-.34.59,11.63,5.38,11.05,6.39-.05.09,1.63,1.32,1.56,1.44-.37.64,5.26,2.24,4.91,2.84-.51.89-19.47-7.64-20.17-6.42-.36.63,12.72,6.85,12.5,7.23s-13.72-2.71-14-2.25c0,0,4,2.19,3.92,2.27-.14.25-4-1.76-4.11-1.63s2.84,1.61,2.82,1.63" fill="none" stroke="#999" stroke-linecap="round" stroke-linejoin="round" stroke-width="1.09"/><path d="M331.55,213.67c-6.92,12,171,90.29,167.29,96.72C495.66,315.9,324.43,204.93,321,210.91c-7.21,12.5,181.74,94.82,177.31,102.51-4.57,7.92-166.92-107.68-173.66-96-6.92,12,169.48,88.83,165.52,95.7-6.17,10.71-162.8-104.46-168.57-94.44-5,8.66,181,91.46,175.29,101.35-3.16,5.49-175.3-115.69-181.76-104.49-5,8.67,174,92.38,170.48,98.56-4.3,7.45-164.8-104-170.53-94.08-6.73,11.68,174.1,90.71,169.8,98.17-5.38,9.33-158.48-98.57-163.05-90.65-5,8.75,172.08,91.86,168.78,97.58-3.07,5.33-166.07-105.13-171.36-95.95-5,8.64,179,93.1,174.54,100.91-6.24,10.82-173-108.54-177.31-101.11-4.1,7.1,170.72,85.28,164.92,95.35s-153.59-97.42-159.8-86.65c-3.91,6.78,169.11,88.89,165.27,95.55-5.57,9.66-171-110.06-176.62-100.25s180.35,94.12,176,101.73c-3.24,5.62-166.37-101.45-169.88-95.36-3.8,6.58,167.72,82.1,161.29,93.25-3.33,5.78-164.43-97.84-167.64-92.27-5.46,9.47,179.46,96.34,176.25,101.9-3.89,6.75-171.93-108-177.82-97.79s178.86,86.44,171.52,99.16c-3.23,5.6-168.51-106.93-173.3-98.62-6.81,11.81,181.68,91.56,175.85,101.67s-182.15-117-188.06-106.76c-4.32,7.49,195.3,99.6,189.54,109.59C480.1,356.16,294.39,230.14,288.13,241c-6,10.44,192.4,102.8,188.76,109.13C473.47,356,293,227.53,285.48,240.5c-3.78,6.55,205.82,102.88,198.85,115-4.2,7.29-197.94-124.36-204-113.89-5.57,9.66,204,108.71,200,115.64-7.48,13-196.37-125.92-204-112.61-5.21,9,208.58,101.46,200.3,115.81-3.8,6.59-203.4-129.68-210.14-118-1.13,2,26.11,13.17,25.28,14.61-.54.93-25.28-11.45-26.12-10-1.06,1.83,11,3.74,9.83,5.69-.6,1-17.32-9-17.76-8.23-.71,1.24,21.34,9.4,20.07,11.6-.89,1.55-26.52-13.71-27.19-12.54s15.8,6.61,14.71,8.5c-.49.86-19.49-9.87-20-9-.66,1.14,19.53,9.32,18.68,10.8S238.81,238.63,238,240c-1.14,2,31.77,16.2,30.83,17.82-1.15,2-31.78-15.48-32.82-13.67-.87,1.52,15.89,7.66,15.23,8.8s-29.51-13.62-30.39-12.1c-1.2,2.07,22.54,10.76,21.56,12.46-.85,1.47-23.47-13.4-23.9-12.66-.8,1.39,21.4,9.46,20.14,11.65-1,1.75-27.46-14.14-28.39-12.52-1.22,2.12,33,17.72,32.43,18.75-1.12,1.94-32.14-15.66-32.69-14.7s26.31,12.59,25.18,14.56C234.48,259.62,202,241,201.42,242s18.18,9.35,17.68,10.22c-.3.52-10.37-.88-10.61-.45-.41.71,12.76,5.7,12,7-.44.76-12.75-7.44-13.21-6.64s6.53,2.2,5.85,3.38c-.32.55-12.72-2.18-13-1.67s10.2,5.42,10,5.78-9.77-2.17-10.06-1.66c0,0,2.91,1.66,2.9,1.68" fill="none" stroke="#999" stroke-linecap="round" stroke-linejoin="round" stroke-width="1.09"/><path d="M304.49,262c-3.38,5.86,173.25,90,168.86,97.63C469,367.1,310.72,259,307,265.47c-4.27,7.4,166.33,81.68,160.07,92.54-4,6.91-162.91-98.31-166.41-92.23C297.26,271.65,473.84,350.07,467,362c-5.08,8.81-159.41-98.15-162.77-92.32S479.3,363.41,476.08,369c-6.88,11.94-171.84-112.22-178.5-100.68C293,276.3,478,362.74,473.7,370.14S302.57,258.22,296.4,268.93c-6.6,11.45,170.33,90.35,166.81,96.44-6.37,11.05-154.34-98.47-159.47-89.57-3.94,6.83,175.92,90.44,171,98.89-3.92,6.8-167-110.74-173.84-98.83-7,12.22,163.52,85.58,159.64,92.3-4.81,8.35-156.12-99.62-160.19-92.55-4.42,7.66,174.4,84.11,167.17,96.65-7,12.14-171-105.48-175-98.48-3.82,6.62,175,91.13,170.68,98.68-3.72,6.45-158.58-99.54-162.91-92-3.76,6.52,170.51,91,167.25,96.69-4.49,7.78-170.25-110.88-177-99.2-6.1,10.57,173.24,90.35,169,97.71-4.77,8.28-162.71-100.81-166.56-94.14-5.15,8.93,172.81,89,168.12,97.2-6.49,11.25-158-103.38-163.56-93.82C292.8,293.2,464,372.58,460.35,379c-3.44,6-154.51-97.9-158.92-90.26s172,88,167.08,96.6c-5.33,9.24-175.21-110.49-181.51-99.57-5.82,10.09,179,95.68,175.63,101.54-4,7-166.21-110.2-173.17-98.13-3.14,5.44,177.53,90.73,172.38,99.66-4.18,7.25-168.52-107.39-175.07-96-3.07,5.33,180.89,91.93,175.42,101.42-5.91,10.26-180.84-113.14-186.94-102.56-6.39,11.08,188.91,99.77,184.82,106.86C455,407.33,273.62,281.3,267.24,292.37c-2.37,4.12,68.77,35.28,66.83,38.64-2.82,4.89-73.62-41.77-75.47-38.56-3,5.24,78.31,41.31,76.6,44.29-1.89,3.28-69.56-43.08-71.92-39-2.77,4.81,64,30.79,61.33,35.46-2.39,4.15-72.6-43.79-74.52-40.47s74.33,38.39,72.35,41.83c-1.4,2.42-66.46-39.38-69-34.95-3.29,5.7,79.76,40.71,77.42,44.76-3.3,5.72-90.46-54.11-93.62-48.63-2.63,4.56,92.77,45.38,89.2,51.57-2,3.53-86.41-51.52-88.45-48-4,6.89,86.26,41.68,82.72,47.83-2,3.46-97.32-60.89-100.93-54.61-2.73,4.73,99.3,53.21,97.48,56.36-1.73,3-92.33-58.48-95.86-52.35s88.25,42,84.36,48.77c-1.67,2.9-83.24-52.69-86.55-47-2,3.39,85.87,45.05,83.88,48.5-1.75,3-94.09-53.79-96.36-49.85-1.84,3.2,107.6,52.83,103.55,59.87-2.27,3.93-97.38-61.88-100.18-57-4,7,90.3,46.75,87.94,50.84-2.94,5.1-82.46-47.72-84.72-43.8-3,5.26,87.29,45.26,85,49.17-3.27,5.67-84.91-53.44-88.23-47.68-2.84,4.93,92.92,47.79,90.35,52.24-3.52,6.1-87.14-56.29-90-51.31-3.52,6.11,89.13,43.93,85.84,49.63S212.34,304,208.92,310c-1.56,2.71,89.84,46.31,87.41,50.54-1.34,2.33-70.35-41.12-72.25-37.82-2.34,4.05,72.64,34.75,69.51,40.19-2.25,3.91-72.28-44.7-74.47-40.92s66.73,32.92,64.28,37.17-65.61-38.64-67.75-34.93c-1.59,2.76,66,34.57,64.42,37.24-2.1,3.64-55.58-36.43-57.51-33.09-1.29,2.24,51.95,25.45,50,28.89-1.86,3.22-48-28.83-48.91-27.18C222,332.91,277,358,275.7,360.15s-52.34-30.93-54.37-27.41c-1.51,2.61,46.38,24,45.17,26.11-.6,1-33.88-19.77-34.84-18.1-2,3.43,30.4,14,28.87,16.69-.92,1.6-35.6-20.06-37-17.64-.82,1.42,43.88,23.35,43,24.87-.5.87-23.32-9.26-23.93-8.21-.26.45,1.22-.12.87.5-.14.25-5.57-3.26-5.74-3-.26.45,9.61,5.17,9.44,5.46-.31.53-8.37-5.28-8.62-4.85-.14.24,7.46,4.07,7.35,4.25" fill="none" stroke="#999" stroke-linecap="round" stroke-linejoin="round" stroke-width="1.09"/><path d="M356.05,342.89c-2.48,4.31,105,53.38,101.82,58.87-3.87,6.72-111.43-70.5-114.35-65.43-3.42,5.93,105.35,55.26,102.91,59.5-1.92,3.33-87.39-52.37-89.72-48.33-2.47,4.29,101.6,50.79,98.17,56.76-2.62,4.54-98.89-63.68-101.94-58.39-3.72,6.46,102.82,52.44,99.79,57.7-3.83,6.64-101-63.38-105.09-56.31-2.55,4.42,100,50.86,97,56.07-2.15,3.73-96.47-59.57-100-53.46-3.84,6.67,109.64,54,105.57,61-2.32,4-93.57-60.6-97.09-54.5-4.11,7.13,90.23,43.41,86.45,50-2.43,4.22-87.14-55.33-89.38-51.45-2.94,5.1,88.44,46.68,86.51,50-2.07,3.58-83.1-48.18-85.32-44.34-2.73,4.73,97.1,50.11,94.49,54.63-2.05,3.56-98.29-57.79-101.26-52.63-2.08,3.62,101.1,52.18,98.39,56.88-3.66,6.35-96.91-58.39-99-54.78C340.7,370.44,441.39,413,437.94,419c-2.82,4.9-87.13-53.69-90-48.65-2.31,4,86,41.94,82.64,47.78-3.13,5.42-83.47-47.53-85.72-43.63-2.55,4.42,94.59,47.25,91.38,52.83-2.9,5-82.87-51.82-85.75-46.84-2,3.48,75.88,38.66,73.63,42.57-2,3.4-77.74-48.41-80-44.57-3.22,5.58,81.77,42.17,79.56,46-1.87,3.25-65-41-67.6-36.58-1.73,3,74.06,36.52,71.34,41.25-2.11,3.66-79.11-44.82-81.11-41.35-2.36,4.09,72.34,34.13,69,39.9-2.09,3.63-67.46-41.74-70-37.38-3.19,5.53,82.08,42.35,79.87,46.18-1.46,2.53-70-45.83-72.67-41.29-1.59,2.75,63.61,32,61.56,35.59-2.45,4.25-62.54-35-64.34-31.83-2.95,5.11,74.23,36.6,71.5,41.34-2.39,4.14-66.27-40.75-67.48-38.65-3.12,5.42,65.49,30.65,62.37,36.06-2.06,3.58-64-41.83-66.15-38.13-2.67,4.63,72.87,36.66,70.5,40.76-2,3.5-67.48-40-69.3-36.86-1.67,2.9,63.31,31.23,61,35.26-1.93,3.35-62.17-39.51-63.91-36.49-2.23,3.86,68.07,36.15,66.68,38.55-1.48,2.57-63.67-37.68-65-35.36-2.59,4.49,62.78,31.92,60.89,35.2-2.09,3.63-56.51-32.62-58.67-28.87-1.63,2.83,57.48,29.87,56,32.39-1.55,2.69-58.05-36.73-60.37-32.72-1.94,3.37,55.25,25.53,52.48,30.34-1.85,3.21-46.71-28.6-47.69-26.9-2.18,3.78,59,30.48,57.42,33.2-1.76,3.06-67.1-39.44-69.55-35.2-2.58,4.47,69.79,36.62,68.17,39.42s-70.8-45.56-73.48-40.92c-1.58,2.74,61.46,29.27,58.76,34-2,3.48-60.76-36.73-63.11-32.65-2.7,4.68,68.68,33.78,66.11,38.22-1.51,2.61-54.57-35.28-56.61-31.74-1.5,2.61,52.08,25,49.88,28.84-1,1.76-51-31.67-52.35-29.3s53.27,27.58,51.88,30c-1.2,2.08-55.49-35.3-57.08-32.54-2.26,3.93,62.73,30.32,60.16,34.78-1.4,2.42-55.73-32.67-57.4-29.78-1.42,2.46,57.45,28.23,55.3,32-1.86,3.22-63.48-37.38-64.79-35.11-3.06,5.31,74.72,37.21,72.13,41.7-2.28,4-69.21-38-70.58-35.6-3,5.29,68.51,36,67,38.71-2.81,4.87-71.45-45-73.2-42-2.2,3.81,72.41,35.54,69.68,40.28s-72.23-44.48-74.43-40.66c-1.64,2.85,75.16,36.94,72.35,41.83-2.29,4-71.34-47.85-74.25-42.79s67.68,34.43,65.65,38c-2.12,3.68-70.45-39.64-72.65-35.83-3.13,5.42,75.25,39.06,73.32,42.39-2.19,3.79-65.56-41.49-67.88-37.48-2.8,4.86,75.59,36.87,72.64,42-1.9,3.3-73.75-45.76-75.92-42-2.84,4.92,75.16,37.8,72.71,42-3.09,5.36-82.55-52.72-85.37-47.82-3.31,5.75,87.28,44.36,84.64,48.93-2.37,4.11-82.6-52.35-85.28-47.7s84.43,42.4,81.66,47.21c-1.54,2.67-74.81-49.62-77.69-44.63-3,5.25,74.88,36.65,72,41.63-2.68,4.65-75.12-42.28-76.81-39.36-1.92,3.32,83.31,41,80.22,46.38-2.42,4.2-74.8-48.77-77.87-43.44-2.51,4.35,68.77,34,66.29,38.32-1.37,2.38-73.77-46.83-75.6-43.67-1.71,3,82.85,44.12,81.21,47-2.33,4-79.35-45.84-81.37-42.33-1.62,2.81,72.41,33.46,68.78,39.76-2.64,4.57-75.17-49.82-78-44.83-1.62,2.8,84.53,43.31,82.13,47.48-2.58,4.48-82.82-51.28-84.79-47.86-3.41,5.92,86.11,41.89,82.69,47.81-2.18,3.77-75.93-44.89-77.72-41.79-2.4,4.16,87.51,43.26,84.34,48.76-2,3.53-85.78-57.12-89.14-51.29-3.15,5.46,89.28,44,86,49.72-3.48,6-91.09-58-94.56-51.93-3.39,5.88,89.39,47.69,87.67,50.69-2.21,3.83-82.55-48.53-84.12-45.8-4,6.92,81.54,42.17,79.39,45.9-3.52,6.11-87.84-52-90.88-46.77-3.28,5.68,96.7,50,94.16,54.44-2.84,4.93-107.63-66.18-110.81-60.66-2.17,3.77,111.92,54.78,107.63,62.23-3.82,6.63-104.72-70.17-109.06-62.65-2.47,4.28,100.93,52.08,98.22,56.79-3.44,6-111.86-67.2-115.14-61.52-4.81,8.34,121.63,61.12,117.65,68-4.35,7.55-116.92-71.9-119.09-68.13-3.07,5.33,115.13,59.22,112,64.73" fill="none" stroke="#999" stroke-linecap="round" stroke-linejoin="round" stroke-width="1.09"/><path d="M135.21,291.47s3,1.68,3,1.72c-.21.36-12.32-2.23-12.63-1.68-.43.74,14.26,7.4,13.89,8-.18.3-9.8-3.23-10.09-2.73-.45.79,6.55,2.81,6.13,3.55-.24.41-12.82-2.9-13.28-2.1-.72,1.24,16.21,6.95,15.16,8.77-.71,1.23-19.75-12.16-20.12-11.53-.62,1.07,10.94,4.22,10,5.8-.34.59-16.6-9.89-17.22-8.81-1.11,1.92,30.13,15,29.07,16.81-.66,1.14-21.05-12.39-21.42-11.75-1.07,1.85,18.42,9,17.71,10.24-.84,1.46-27.14-13.87-28-12.32-1.59,2.76,24.67,10.73,23.14,13.38" fill="none" stroke="#999" stroke-linecap="round" stroke-linejoin="round" stroke-width="1.09"/><path d="M132.91,238.85s2.86,1.61,2.84,1.64c-.24.41-9.9-2.09-10.18-1.6-.15.27,10,5.43,9.81,5.67-.37.63-9.72-3.73-10.05-3.15s2.24.19,1.76,1c-.13.23-.46,3.86-.55,4-.77,1.34,4.18,1.37,3.72,2.15-.36.63-11.26-5-11.48-4.61-.45.78,12,5,11.18,6.46-.45.77-24.92-12.33-25.84-10.74-1.07,1.86,27.95,14.06,27,15.63-.76,1.32-20.25-11.17-20.69-10.42-.9,1.56,23.79,11.41,22.77,13.17" fill="none" stroke="#999" stroke-linecap="round" stroke-linejoin="round" stroke-width="1.09"/><path d="M379,35.75c-.36.62,1.91.09,1.47.85-1.08,1.87-31.16-17.55-32.24-15.68-1.72,3,58.32,29.53,56.51,32.67-2.07,3.59-55-31.93-56-30.15-2.73,4.73,62.2,29.63,59.46,34.38S326,6.66,323.09,11.71c-3.25,5.65,103.2,51.78,99.79,57.69-3.19,5.53-99.28-58.57-101.5-54.72S432.28,67.27,427.3,75.91C422.62,84,313.44.48,308.86,8.42S437.46,75,434.09,80.82C431.32,85.63,308.26,5.45,305,11.11S442.72,76.75,436.67,87.23C434.15,91.61,298.94.8,295.07,7.52c-2.78,4.82,151.11,75.6,146,84.42-4.55,7.89-137.4-88.34-141.66-81C294,20.32,445.07,84.82,440.59,92.6c-4.85,8.4-150-93.45-154.23-86.14-3.6,6.24,177.53,87.65,171,98.89C451.35,115.85,284.65-2.62,279.7,6s183.13,98.11,179.77,103.94C454.29,118.87,278.33-7.53,271,5.15c-3.55,6.16,196.21,102.42,191.45,110.69-3.35,5.81-186.3-120-193.67-107.25-5.2,9,207.16,101.08,199.08,115.1C464.18,130.09,265.5-7.52,258.3,5,251.42,16.89,480.23,114,471.91,128.46,464.76,140.86,265.43-3,259.44,7.42,254,16.91,471.85,110.3,463.23,125.24,458.46,133.52,265.18-1.49,259.81,7.82,253.74,18.34,471,119.06,466.31,127.2,458.23,141.21,253.75-5.33,248,4.64c-8.37,14.52,221.49,114.52,215.63,124.67S249.33-8.34,242.08,4.23C233.89,18.44,485.93,124.16,476.82,140,469.64,152.4,247.45.32,242.18,9.46c-4.88,8.46,244.94,122.16,236.53,136.75C471.08,159.46,243.29-6.1,234,10.09c-9,15.69,254,136.18,249.4,144.19C476.59,166,233.28,3.21,228.28,11.88c-7,12.21,259,132.23,251.44,145.37C474.17,166.89,228.56.18,221.2,13,210.55,31.43,490.38,152.13,483.26,164.47c-5.85,10.15-271.91-170.89-280-156.91-6.65,11.53,295.35,150,286.39,165.58C479.65,190.55,210.25,5.71,205.2,14.47c-9.83,17.05,296.45,157.71,290.53,168C486.81,197.91,205.51,1.93,197.87,15.18c-5.21,9,137,66.4,131.48,76C325,98.79,192.73,5,187.7,13.73c-5.39,9.34,124,65.45,121.33,70.15S183.86,8.41,180.88,13.57c-3.57,6.19,123.82,62.14,119.74,69.23-4,6.88-120.78-75.22-125.72-66.66-2.58,4.47,109.84,57.54,107.26,62C279.73,82.37,176.1,14.28,173,19.57c-2,3.49,112.26,56.18,108.49,62.73-3.88,6.73-107-67.79-110.07-62.43-3.78,6.55,103.69,51.74,100.14,57.89-3.85,6.68-96.37-60.7-98.6-56.83-3.21,5.57,101.74,52.52,99,57.25C269.54,82.47,171,11,166.77,18.27c-3.64,6.32,107.31,55.51,104.48,60.41-3.35,5.81-94.19-62.6-97.78-56.36-2.79,4.84,99.52,48,95.4,55.16C265.13,84,166.56,14.85,162.5,21.89c-3,5.13,109.22,56,106.11,61.35C265.24,89.08,165.56,20.71,163,25.08,160.69,29.15,264.73,76.2,261.41,82c-3.55,6.15-97.3-58-99.7-53.8-3,5.24,98.35,51.88,96.2,55.62-1.72,3-90.61-58.59-94.11-52.52-3,5.17,91,45,87.68,50.69-1.66,2.88-92.75-57.21-94.76-53.72-2.25,3.91,91.11,45.85,88.15,51C243,82.4,156.1,26.66,154.39,29.63c-2.87,5,97.25,48,93.69,54.17-2.84,4.92-88.23-53.42-90.81-49-3.3,5.73,82.3,42,79.88,46.18-2.68,4.65-88.54-58.06-91.55-52.85s97.9,49.15,94.68,54.74c-2.78,4.83-88.21-56.35-90.93-51.62-2.59,4.49,98.7,48.89,95.17,55-2.14,3.71-90-53.8-91.92-50.52-3.21,5.57,88,43.38,84.77,49-3,5.15-94.15-58.61-96.73-54.14-2.82,4.9,92.65,49.19,90.75,52.47-3.23,5.6-88.77-53.23-91.9-47.8-2,3.5,93,45,89.22,51.58-1.52,2.64-82.07-53.64-85.28-48.06-3.49,6,87.39,44.31,84.7,49-3.08,5.34-88.88-53.55-90.75-50.31-2.41,4.17,86.1,41.21,82.39,47.64-3.31,5.74-87-52.13-89.27-48.1-1.76,3,85.78,41.47,82.27,47.56-2.21,3.82-74.33-43.75-77.16-38.85-3.64,6.31,78.82,40,76.43,44.19-2.31,4-76.48-44.41-77.89-41.94-1.93,3.35,74.49,35.6,71.26,41.2-1.48,2.57-77-49.38-79.24-45.55-2.78,4.83,87.34,45.31,85.1,49.2-3.4,5.9-86.46-51.07-89-46.64-3.59,6.24,85.84,41.47,82.31,47.59-2.16,3.75-78.87-45.93-80.58-43-3.5,6.07,80.81,39.24,77.58,44.85-2.94,5.1-80.44-46.2-82.19-43.16-3.07,5.33,79.53,41.08,77.41,44.76-1.48,2.56-77.51-44-79.83-40-2.59,4.49,82.87,39.35,79.16,45.77-3.34,5.79-82.65-53.53-85.79-48.09-1.79,3.1,86.11,41.32,82.45,47.67-2.52,4.37-75.92-48.65-78.66-43.9-3.75,6.51,76.84,38.72,74.37,43-1.85,3.2-80.85-46.24-82.6-43.2-3.44,6,91.07,48.27,89.17,51.55s-85.8-53.83-88.69-48.81c-2.56,4.44,88.88,45,86.12,49.79s-87.91-58.34-91.31-52.44c-1.92,3.34,86,42.4,82.85,47.9-2.76,4.79-78.64-47.09-81.83-41.56-2.67,4.63,79.37,37.2,75.62,43.72-1.5,2.61-79.17-46.07-81-42.85-2.9,5,84.74,43.43,82.34,47.6-3,5.14-77.38-46-79-43.23-3.7,6.42,85.56,40.74,81.78,47.28-2,3.55-91.08-50.58-92.81-47.57-2.62,4.55,91.31,47.2,88.89,51.39-1.95,3.38-88.87-52.73-91.13-48.82-2.91,5.05,93.34,47.24,90.44,52.29-3.32,5.76-95.12-54.4-97.49-50.27-2.7,4.69,95,47.15,91.65,53-2.24,3.89-86.34-50.3-88.94-45.78-2.35,4.07,83.1,39.72,79.51,46-3.1,5.37-80.77-49.9-83.67-44.87-2.3,4,83.91,41.12,80.71,46.66S75.18,80,72.77,84.14c-1.79,3.1,92.54,49.21,90.69,52.43-3,5.2-90.24-53.22-92.09-50C69.12,90.46,159.71,131,156.84,136c-2.44,4.23-78.36-49.83-81-45.33-1.84,3.19,82.53,39.7,79.07,45.71-1.79,3.11-84.05-54.68-87.51-48.68-3.8,6.59,95.74,51.29,94,54.34-2.5,4.34-93.38-56.43-95.35-53-2.24,3.88,87.54,44.61,84.94,49.11C148.81,142,71.48,91.62,68.93,96c-2.45,4.25,84.24,43.22,81.87,47.33-1.73,3-74.2-49.2-77.07-44.21-3.22,5.58,81.84,42.06,79.57,46-1.64,2.84-85.08-51.29-88-46.26s84.75,44.27,82.71,47.82c-3,5.24-81.74-50.34-84.08-46.29-3.88,6.73,87.25,41.3,83.3,48.16-2.33,4-83.92-51.25-86.92-46-3.91,6.79,90.19,43.53,86.47,50-2.84,4.93-81-48.12-82.78-45.07-2.5,4.33,92.91,48.53,90.67,52.42-2.56,4.45-88-54.94-90.55-50.56-3,5.25,88.73,44.81,85.93,49.68-2.18,3.77-87-50.21-89.57-45.78-3.77,6.54,82.1,39.08,78.48,45.37-2.13,3.69-85.28-52.71-86.91-49.89-3.68,6.39,96.17,47.42,92.63,53.56-2,3.46-81.4-53.22-84.16-48.44-3.54,6.15,89.8,45.42,87,50.29-3.29,5.7-89.06-55.17-90.82-52.1-4.06,7,85.92,40.34,81.88,47.34C135.85,164,59.54,111.66,57,116c-3.84,6.67,94.7,47.5,91.56,52.94-2.49,4.31-98.58-55-100.42-51.84-3,5.23,98.25,52.45,96.37,55.72-2.61,4.54-87.89-49.88-89.5-47.08-3.41,5.91,94.45,46.56,91,52.6-3.22,5.58-93.31-61.58-96.94-55.29-4.12,7.14,100.79,49,96.77,55.95-2.13,3.69-100-58.45-102-55-2.1,3.65,94,48.64,91.53,52.92S41.88,118.3,39.55,122.35c-3.62,6.27,99.79,51.54,97.13,56.16-3.33,5.78-85.86-56-89-50.48-3.38,5.86,86,45.32,84.08,48.61-1.44,2.49-79.63-47.11-81.26-44.28-3.81,6.61,93,45,89.23,51.59-1.92,3.32-92.22-55.22-94.32-51.58-3.72,6.46,94.9,47.63,91.77,53.06-3.64,6.31-88.73-58.09-91.69-53-3.67,6.36,100.81,52.62,98.36,56.87-3.68,6.38-103.16-63.51-105-60.28-2.86,5,96.36,49.31,93.59,54.11-3.7,6.42-92.1-56.07-93.94-52.87-2.91,5,106.7,54.06,103.4,59.78-3.53,6.13-94.86-60.88-98.44-54.67-3.81,6.61,89,45.25,86.35,49.92C126.48,191,45.57,136.16,43,140.69c-3.87,6.72,99.84,49.2,96.16,55.59-2.29,4-94.17-60.9-97.61-54.93-2,3.5,102.72,52.23,99.63,57.6-2.71,4.69-102.59-60.29-105.3-55.59-4,7,103.31,55.33,101.4,58.63-1.73,3-97.07-56.45-99.71-51.88-3.08,5.34,95.64,48.72,92.8,53.65-3,5.2-99.52-63-102.82-57.29C25.24,150.4,134.16,203.13,132,206.87c-3.59,6.22-93.07-57-96.77-50.55-1.91,3.31,76.72,38.2,74.06,42.82-1.69,2.93-70.12-41.78-72.5-37.66-1.62,2.81,71.59,35.49,69,39.91C103,206.27,36.2,158,34.43,161c-3.63,6.3,71.18,35.24,68.62,39.68-2.38,4.12-77.07-43.1-78.88-40-2.86,5,89.21,46,86.79,50.18-1.59,2.75-80.81-45.81-82.63-42.66-2,3.53,85.34,41.57,82,47.4-2.77,4.81-76.34-45-78.22-41.75-2.59,4.49,68.29,32.84,65.42,37.82-2.41,4.18-65.65-40.2-67.75-36.55-2.73,4.74,75.1,38.47,73,42.18-2.91,5-72.82-42.74-74.57-39.71-2.18,3.79,76.28,37.71,73.51,42.5-1.6,2.78-75.87-48.71-78.52-44.1-2.1,3.64,75.49,35.52,72,41.62-1.72,3-72.88-42.1-75.5-37.56-2,3.4,88,46.1,85.93,49.68-2.3,4-84.82-48.51-87.2-44.39-1.78,3.09,85.69,44.8,83.64,48.36s-81.16-48-83.46-44.07C15,195.87,98.32,228,95,233.87c-1.92,3.32-80.8-50.24-83-46.52-2.57,4.46,91.13,46.17,88.32,51.06S21.51,190.51,19,194.85c-4.65,8.06,110.89,58.48,108.45,62.7C125.32,261.27,21.62,191.93,18.68,197c-3.34,5.79,110.91,55.89,107.35,62.06-4.19,7.27-107.93-66.79-110.6-62.15-4.19,7.27,101.52,53.2,99.15,57.32-1.71,3-90.7-53.88-93.74-48.6-4,7,90.54,43.33,86.64,50.09C103.94,261.86,20.76,199,17.27,205c-3.86,6.69,93,49.16,91,52.6-3.85,6.67-95.44-57.93-98.45-52.71-4.1,7.11,96.68,51.58,94.82,54.82s-85.06-48.57-87.24-44.79c-3.43,6,91.87,44.75,88.25,51-1.85,3.2-91.61-54-93.76-50.31-4,7,95.57,50.42,93.48,54-2.51,4.36-89.09-54.94-91.7-50.41-1.91,3.32,86.82,45.15,84.64,48.93-2.59,4.49-82.71-52.61-86.06-46.8-2.79,4.84,89.6,44.69,86.53,50-1.94,3.37-78.9-44.28-80.94-40.74-1.91,3.32,87.61,41.8,83.78,48.44-2.31,4-81.44-50-83.52-46.37s81,39.11,77.66,44.9c-2.17,3.76-80.66-48.42-83.45-43.59-3.08,5.35,84.49,44.5,82.61,47.76-2.3,4-82.77-50.7-86-45.05-2.48,4.31,97.42,47.69,93.68,54.16-2.3,4-90.66-56.82-93.49-51.91-3.9,6.76,133.86,67,129.39,74.81C135.79,318.46,14,241.32,11.65,245.35c-4.63,8,126.84,66.14,123.73,71.54-4.58,7.94-121-77-125.62-69.06-3,5.19,133.44,64.29,127.88,73.94-3.09,5.36-130.47-78.47-134-72.33-2.89,5,147.48,74,142.63,82.46C143,337.61,14,252.11,10.83,257.64c-4.51,7.82,140.49,72,136.51,78.92-4.64,8-136.68-86.51-140.52-79.85S147.78,329.45,144,336c-2.84,4.93-127-76.23-130.68-69.92C8.55,274.36,153.49,334,147.8,343.85,144.66,349.3,11.49,262.61,8,268.74c-2.7,4.69,146.94,77.86,143.87,83.18-2.68,4.65-137.23-81.29-140.51-75.59-4.88,8.46,142.89,76,140.05,81-5.51,9.55-133.92-84.79-139.23-75.58C8.5,288,157.83,356.6,153.78,363.61,148.87,372.12,8,277.59,4.87,283c-5.59,9.69,166.43,82.2,160.37,92.72C161.07,383,8.34,277.78,5,283.54c-3.79,6.58,167.49,89.44,164.29,95C164.54,386.82,16.75,286.35,14,291.19c-4.39,7.61,160.16,82.08,155.61,90-3.84,6.67-152-95.5-156.55-87.61-6.09,10.57,171.47,87.69,166.52,96.28C173.43,400.42,22.13,290.46,17.23,299c-11.45,19.86,327.5,175.1,321.34,185.79C330.7,498.4,21.41,279.6,10.2,299.05-3.19,322.29,343.81,465.9,332.56,485.42c-12.5,21.68-305.92-192.48-313.13-180C9.28,323,347,466.15,334.62,487.66c-9.93,17.22-311.45-191-318.26-179.17-10,17.35,324.42,157.3,311.33,180-7.45,12.92-300.17-190.09-309-174.73C7.14,333.75,328,473.82,319.91,487.93,312.7,500.43,27.21,308.16,21.75,317.63,14.47,330.26,327,473.73,318.16,489c-11,19.15-287-184.63-297.81-166-8.69,15.07,302.91,155.61,294.47,170.25C308,505,23,303.31,12.62,321.29c-10.9,18.9,315,158,304.56,176.09C311.13,507.88,32.53,310.4,22,328.72,11.72,346.5,314.05,485.35,308.76,494.53c-6.64,11.52-279-174.5-286.35-161.76-6.32,11,290,144.43,280,161.88-9.47,16.42-263.82-172.51-273.32-156-8.16,14.16,280.48,146.33,273.64,158.2-6.46,11.2-268-176.93-278.18-159.35C17,350.47,301,476.35,292,492.06c-5.79,10-262.18-158.4-267.67-148.88C14.56,360,302.84,482,293.24,498.68c-4.86,8.44-253.3-154.61-259.48-143.88-7.5,13,251.88,129.29,244.82,141.54-5.47,9.48-243-162.93-252.72-146.06-9.25,16,265,137.09,258,149.16-10,17.35-250.27-153.32-255.44-144.34-5,8.71,260.44,133.37,253,146.27C271.79,518.06,40.71,346.9,33,360.33,25.5,373.27,286.32,489.55,278.86,502.5c-5.28,9.15-237.09-142.35-241.4-134.87-7.53,13.06,239.32,120.18,231.46,133.82C261.33,514.62,47.51,362,41.55,372.29c-6.3,10.92,235.84,116,227,131.27C262.12,514.77,43.88,361.17,37.21,372.74,29.56,386,267.09,487.85,259.39,501.2S39.93,364,34.3,373.79c-5.39,9.34,229.85,115.84,222.48,128.63C252,510.69,48.53,369.8,42.25,380.69c-7.1,12.31,208.27,108.7,203.2,117.48-3.72,6.46-197.87-124.1-202.77-115.6C37.19,392.11,259,488.06,250.5,502.73,244.31,513.46,52,380.54,47.63,388.19c-5.74,10,195.19,98,188.76,109.13-5.48,9.51-178.57-109.47-182-103.54C50.16,401.15,247,492.69,241.62,502c-5.71,9.9-179.21-109.78-183.56-102.24-5.79,10,176.8,92,172.38,99.66-6.06,10.51-172.68-108-178.45-98-5.18,9,167.84,89.23,164.46,95.08-4.52,7.84-145.58-91.38-150.79-82.35-5.73,9.93,149.56,76.7,145.34,84S75.45,411.63,70.76,419.75C66.2,427.66,214.41,495,211,500.85c-5.18,9-128.37-79.4-131.65-73.72C74.9,434.92,206,489.47,201.28,497.61c-3.39,5.88-119.84-72.33-122.92-67-4.66,8.08,117.92,59.74,114.27,66.07-3.9,6.77-102.88-67.21-106.94-60.16-1.91,3.31,100.31,51.19,97.37,56.29-2.4,4.16-82.7-50.48-85.88-45C95,451.66,162.73,481,160.67,484.57c-1.59,2.76-45-26.61-45.94-24.92-2.09,3.62,36.83,16.31,34.67,20-.68,1.19-26.33-14.7-27.15-13.27-.31.54,13.89,7.28,13.56,7.84" fill="none" stroke="#999" stroke-linecap="round" stroke-linejoin="round" stroke-width="1.09"/><path d="M254.82,4.69C117.5,1,2,106.23,11.22,256.13c-7.46,131,99.49,251.87,245.57,248,137.12,3.9,255.1-111.79,245.91-242.52C507.85,107.22,389.55,3.85,254.82,4.69ZM318.17,206.8c3.1,0-12.4,27.82-11.7,34.76.23-6.48-107.27-1.5-103.51-.41-2-1-.13,17.08-1.69,23.33-.52-9.64,100.57-7.69,99.07-2-2.78-5.9-15.26,35.07-16.13,23.44,3.12,6.09-79,3.18-80.74,9.12,11.66,47.66,34.42,76.27,69.85,65.91,22.85-.46,49-.56,70.93-26,1.61,3.89,2.5,77.81-1.41,70-19.91,16.29-41.89,16.88-69.61,15-40.07,4.36-70.48-13.7-96-36.51-22.69-13.83-34-51.59-40.12-85.94-3.4-7.75-37.6-6.7-36.7-6.35,1.85-.44,16.14-34.17,15.33-39-.39,2.71,15.34,4.63,18.76,6.24-.33.28-1.49-16.77-.93-14.91,2.35,1,1.9-4.81-.29-3.65,1.05-2.3-32.87.58-31.54,4.79-2-.55,10.14-38,14.34-32-1-5.78,21.33-2.38,22.45-.38,5.63-42.46,24.08-73.41,45.2-97.62,26.71-19.48,56.5-37.08,90.16-29.62,29.73-5,57.53,1.25,84.83,21.57,1.46-4.91-27.5,52.38-26.62,60.95-23.09-24.7-42.18-25.62-59.22-28.06-31.83-2-53.34,23.61-67.23,63C207.36,207.51,317.27,208.7,318.17,206.8Z" fill="none" stroke="#666" stroke-width="2.73"/><path d="M262,2.44C108.45,3,4.94,119.86.81,249.05,13.86,390.36,120.16,499.5,248.44,509.56c146-6.66,256.45-114.91,262.75-258.33C501.21,111.89,399.65,3.11,262,2.44Zm61.62,205.3c-10.24-2.11-20.41,34.53-18.47,28.74,2.65,3-102,1.5-107.09,4.63,5.14-.83,4.31,20.42,4.38,16.4-2-1.48,99.75,3.43,100.56,1.4-2.72,1-14.09,35.71-16.36,34.07-3.94-.2-79.41-3-79.72-1.41,6.47,47.81,31.09,69,61.71,73.8,22,.9,51.11-11.77,74.39-25.69-5.4-6-2.56,63.49-3.7,67.1-13.61,8.21-37.26,14-69.18,15-35.25-2.08-71.95-13.41-93.3-34.54-17-24.78-33.2-58.33-44.23-96.55,10.55,2-25.79.31-37.36,1.86,8.61-1.8,22.82-33.2,18-31.09,3.39-.25,17-2.22,19,.42,4.48-2.57,1.77-12.7-1.6-12.29,2-6.13,8.42-9.22.65-12.75,8.28,3.73-26.83.79-34.14,2.57,8.25-.54,21.56-34.16,18.21-34.16,0-.06,22.06-.52,26.13,2,2.17-40.42,19.71-66.4,47-92.76,24.71-20.29,55.19-29.67,85.08-35.15,29.1,6.45,58.05,10.74,84,24.63,3.34,5.91-26.42,58.77-22.88,58.51-21.74-8.86-47.34-15.57-68.27-22.06-29.64,2.53-52.84,27.52-59.59,67.66C211.18,207.36,322.13,205.73,323.65,207.74Z" fill="none" stroke="#4c4c4c" stroke-width="2.05"/></svg>